HIERARCHY
ROOT Hips
{
	OFFSET 0.000000 83.214638 0.000000
	CHANNELS 6 Xposition Yposition Zposition Xrotation Yrotation Zrotation
	JOINT Pelvis
	{
		OFFSET 0.000000 0.000000 0.000000
		CHANNELS 3 Xrotation Yrotation Zrotation
		JOINT LeftUpLeg
		{
			OFFSET 8.479700 -4.795502 -0.379100
			CHANNELS 3 Xrotation Yrotation Zrotation
			JOINT LeftLeg
			{
				OFFSET 0.024144 -32.555107 0.112900
				CHANNELS 3 Xrotation Yrotation Zrotation
				JOINT LeftFoot
				{
					OFFSET -0.024144 -32.638630 -3.012600
					CHANNELS 3 Xrotation Yrotation Zrotation
					JOINT LeftToeBase
					{
						OFFSET 0.970200 -13.225400 11.864200
						CHANNELS 3 Xrotation Yrotation Zrotation
						End Site
						{
							OFFSET 0.000000 12.319262 0.000000
						}
					}
					JOINT LFootTongue
					{
						OFFSET 1.142400 -1.059800 6.665200
						CHANNELS 3 Xrotation Yrotation Zrotation
						End Site
						{
							OFFSET 0.000000 12.319262 0.000000
						}
					}
				}
				JOINT LeftPantLeg
				{
					OFFSET 0.918482 -16.533964 -2.284700
					CHANNELS 3 Xrotation Yrotation Zrotation
					End Site
					{
						OFFSET 0.350399 24.744368 0.000000
					}
				}
			}
		}
		JOINT RightUpLeg
		{
			OFFSET -8.479700 -4.795502 -0.379100
			CHANNELS 3 Xrotation Yrotation Zrotation
			JOINT RightLeg
			{
				OFFSET -0.023144 -32.555092 0.112900
				CHANNELS 3 Xrotation Yrotation Zrotation
				JOINT RightFoot
				{
					OFFSET 0.023144 -32.638641 -3.012700
					CHANNELS 3 Xrotation Yrotation Zrotation
					JOINT RightToeBase
					{
						OFFSET -0.970200 -13.225400 11.864200
						CHANNELS 3 Xrotation Yrotation Zrotation
						End Site
						{
							OFFSET 0.000000 12.319244 0.000000
						}
					}
					JOINT RFootTongue
					{
						OFFSET -1.142200 -1.059800 6.665200
						CHANNELS 3 Xrotation Yrotation Zrotation
						End Site
						{
							OFFSET 0.000000 12.319243 0.000000
						}
					}
				}
				JOINT RightPantLeg
				{
					OFFSET -0.919482 -16.533978 -2.284800
					CHANNELS 3 Xrotation Yrotation Zrotation
					End Site
					{
						OFFSET -0.350400 24.744419 0.000000
					}
				}
			}
		}
	}
	JOINT Spine
	{
		OFFSET 0.000000 7.722000 1.166200
		CHANNELS 3 Xrotation Yrotation Zrotation
		JOINT Spine1
		{
			OFFSET 0.000000 12.024101 0.248800
			CHANNELS 3 Xrotation Yrotation Zrotation
			JOINT Spine2
			{
				OFFSET 0.000000 11.502998 -0.491200
				CHANNELS 3 Xrotation Yrotation Zrotation
				JOINT Neck
				{
					OFFSET 0.000000 18.430702 -3.123100
					CHANNELS 3 Xrotation Yrotation Zrotation
					JOINT Head
					{
						OFFSET 0.000000 9.051102 1.034000
						CHANNELS 3 Xrotation Yrotation Zrotation
						JOINT HairB
						{
							OFFSET 0.208400 24.786102 24.822300
							CHANNELS 3 Xrotation Yrotation Zrotation
							End Site
							{
								OFFSET 0.000000 32.263779 0.000000
							}
						}
						JOINT HairA
						{
							OFFSET -7.081100 24.428299 23.196600
							CHANNELS 3 Xrotation Yrotation Zrotation
							End Site
							{
								OFFSET 0.000000 32.263779 0.000000
							}
						}
						JOINT Hat
						{
							OFFSET 16.728800 15.048294 -15.439601
							CHANNELS 3 Xrotation Yrotation Zrotation
							End Site
							{
								OFFSET 0.000000 32.263779 0.000000
							}
						}
					}
				}
				JOINT LeftShoulder
				{
					OFFSET 6.197800 13.665199 -4.064700
					CHANNELS 3 Xrotation Yrotation Zrotation
					JOINT LeftArm
					{
						OFFSET 7.778100 -0.187103 -1.709300
						CHANNELS 3 Xrotation Yrotation Zrotation
						JOINT LeftForeArm
						{
							OFFSET 22.049376 0.000000 0.000000
							CHANNELS 3 Xrotation Yrotation Zrotation
							JOINT LeftHand
							{
								OFFSET 23.009392 0.000000 0.000000
								CHANNELS 3 Xrotation Yrotation Zrotation
								JOINT LeftHandThumb1
								{
									OFFSET 3.507191 -2.063065 3.133727
									CHANNELS 3 Xrotation Yrotation Zrotation
									JOINT LeftHandThumb2
									{
										OFFSET 3.101337 -1.790558 1.790558
										CHANNELS 3 Xrotation Yrotation Zrotation
										JOINT LeftHandThumb3
										{
											OFFSET 3.058640 -1.765907 1.765906
											CHANNELS 3 Xrotation Yrotation Zrotation
											End Site
											{
												OFFSET -0.415260 3.926476 -0.049563
											}
										}
									}
								}
								JOINT LeftHandIndex1
								{
									OFFSET 11.334419 -0.901459 3.706815
									CHANNELS 3 Xrotation Yrotation Zrotation
									JOINT LeftHandIndex2
									{
										OFFSET 3.283112 0.000000 0.000000
										CHANNELS 3 Xrotation Yrotation Zrotation
										JOINT LeftHandIndex3
										{
											OFFSET 3.323853 0.000000 0.000000
											CHANNELS 3 Xrotation Yrotation Zrotation
											End Site
											{
												OFFSET -1.135597 3.097809 0.402452
											}
										}
									}
								}
								JOINT LeftHandMiddle1
								{
									OFFSET 11.335861 0.000000 0.000000
									CHANNELS 3 Xrotation Yrotation Zrotation
									JOINT LeftHandMiddle2
									{
										OFFSET 3.410492 0.000000 0.000000
										CHANNELS 3 Xrotation Yrotation Zrotation
										JOINT LeftHandMiddle3
										{
											OFFSET 3.312172 0.000000 0.000000
											CHANNELS 3 Xrotation Yrotation Zrotation
											End Site
											{
												OFFSET -1.150200 3.080154 0.400270
											}
										}
									}
								}
								JOINT LeftHandRing1
								{
									OFFSET 11.514786 -0.013176 -3.003090
									CHANNELS 3 Xrotation Yrotation Zrotation
									JOINT LeftHandRing2
									{
										OFFSET 3.053307 0.000000 0.000000
										CHANNELS 3 Xrotation Yrotation Zrotation
										JOINT LeftHandRing3
										{
											OFFSET 3.295807 0.000000 0.000000
											CHANNELS 3 Xrotation Yrotation Zrotation
											End Site
											{
												OFFSET -1.281006 3.013344 0.375733
											}
										}
									}
								}
								JOINT LeftHandPinky1
								{
									OFFSET 10.518692 -0.960396 -5.730441
									CHANNELS 3 Xrotation Yrotation Zrotation
									JOINT LeftHandPinky2
									{
										OFFSET 2.861649 0.000000 0.000000
										CHANNELS 3 Xrotation Yrotation Zrotation
										JOINT LeftHandPinky3
										{
											OFFSET 2.863380 0.000000 0.000000
											CHANNELS 3 Xrotation Yrotation Zrotation
											End Site
											{
												OFFSET -0.843597 2.711159 0.369971
											}
										}
									}
								}
							}
							JOINT LSleeve
							{
								OFFSET 6.676277 -0.344902 -1.011730
								CHANNELS 3 Xrotation Yrotation Zrotation
								End Site
								{
									OFFSET 0.000000 14.885353 0.000000
								}
							}
						}
					}
				}
				JOINT RightShoulder
				{
					OFFSET -6.197800 13.665199 -4.064700
					CHANNELS 3 Xrotation Yrotation Zrotation
					JOINT RightArm
					{
						OFFSET -7.778100 -0.187103 -1.709300
						CHANNELS 3 Xrotation Yrotation Zrotation
						JOINT RightForeArm
						{
							OFFSET -22.049376 0.000000 0.000000
							CHANNELS 3 Xrotation Yrotation Zrotation
							JOINT RightHand
							{
								OFFSET -23.009392 0.000000 0.000000
								CHANNELS 3 Xrotation Yrotation Zrotation
								JOINT RightHandThumb1
								{
									OFFSET -3.507191 -2.063065 3.133727
									CHANNELS 3 Xrotation Yrotation Zrotation
									JOINT RightHandThumb2
									{
										OFFSET -3.101337 -1.790558 1.790558
										CHANNELS 3 Xrotation Yrotation Zrotation
										JOINT RightHandThumb3
										{
											OFFSET -3.058640 -1.765907 1.765906
											CHANNELS 3 Xrotation Yrotation Zrotation
											End Site
											{
												OFFSET 0.415260 3.926476 -0.049563
											}
										}
									}
								}
								JOINT RightHandIndex1
								{
									OFFSET -11.334419 -0.901459 3.706815
									CHANNELS 3 Xrotation Yrotation Zrotation
									JOINT RightHandIndex2
									{
										OFFSET -3.283112 0.000000 0.000000
										CHANNELS 3 Xrotation Yrotation Zrotation
										JOINT RightHandIndex3
										{
											OFFSET -3.323853 0.000000 0.000000
											CHANNELS 3 Xrotation Yrotation Zrotation
											End Site
											{
												OFFSET 1.135597 3.097809 0.402452
											}
										}
									}
								}
								JOINT RightHandMiddle1
								{
									OFFSET -11.335861 0.000000 0.000000
									CHANNELS 3 Xrotation Yrotation Zrotation
									JOINT RightHandMiddle2
									{
										OFFSET -3.410492 0.000000 0.000000
										CHANNELS 3 Xrotation Yrotation Zrotation
										JOINT RightHandMiddle3
										{
											OFFSET -3.312172 0.000000 0.000000
											CHANNELS 3 Xrotation Yrotation Zrotation
											End Site
											{
												OFFSET 1.150200 3.080154 0.400270
											}
										}
									}
								}
								JOINT RightHandRing1
								{
									OFFSET -11.514786 -0.013176 -3.003090
									CHANNELS 3 Xrotation Yrotation Zrotation
									JOINT RightHandRing2
									{
										OFFSET -3.053307 0.000000 0.000000
										CHANNELS 3 Xrotation Yrotation Zrotation
										JOINT RightHandRing3
										{
											OFFSET -3.295807 0.000000 0.000000
											CHANNELS 3 Xrotation Yrotation Zrotation
											End Site
											{
												OFFSET 1.281006 3.013344 0.375733
											}
										}
									}
								}
								JOINT RightHandPinky1
								{
									OFFSET -10.518692 -0.960396 -5.730441
									CHANNELS 3 Xrotation Yrotation Zrotation
									JOINT RightHandPinky2
									{
										OFFSET -2.861649 0.000000 0.000000
										CHANNELS 3 Xrotation Yrotation Zrotation
										JOINT RightHandPinky3
										{
											OFFSET -2.863380 0.000000 0.000000
											CHANNELS 3 Xrotation Yrotation Zrotation
											End Site
											{
												OFFSET 0.843597 2.711159 0.369971
											}
										}
									}
								}
							}
							JOINT RSleeve
							{
								OFFSET -6.676277 -0.344902 -1.011730
								CHANNELS 3 Xrotation Yrotation Zrotation
								End Site
								{
									OFFSET 0.000000 14.885353 0.000000
								}
							}
						}
					}
				}
				JOINT Backpack
				{
					OFFSET 0.000000 -2.471497 36.677502
					CHANNELS 3 Xrotation Yrotation Zrotation
					End Site
					{
						OFFSET 0.000000 20.427315 0.000000
					}
				}
				JOINT Hood
				{
					OFFSET 0.000000 18.754097 -10.431000
					CHANNELS 3 Xrotation Yrotation Zrotation
					JOINT Hood1
					{
						OFFSET 0.000000 -5.011002 -7.685901
						CHANNELS 3 Xrotation Yrotation Zrotation
						End Site
						{
							OFFSET 0.000000 9.175140 0.000000
						}
					}
				}
				JOINT LHoodieString
				{
					OFFSET 5.250500 16.397697 3.089900
					CHANNELS 3 Xrotation Yrotation Zrotation
					JOINT LHoodieString1
					{
						OFFSET 0.257700 -6.364304 3.694600
						CHANNELS 3 Xrotation Yrotation Zrotation
						JOINT LHoodieString2
						{
							OFFSET 0.000000 -9.643799 2.679100
							CHANNELS 3 Xrotation Yrotation Zrotation
							End Site
							{
								OFFSET 0.000000 10.009018 0.000000
							}
						}
					}
				}
				JOINT RHoodieString
				{
					OFFSET -5.250500 16.397697 3.089900
					CHANNELS 3 Xrotation Yrotation Zrotation
					JOINT RHoodieString1
					{
						OFFSET -0.257700 -6.364304 3.694600
						CHANNELS 3 Xrotation Yrotation Zrotation
						JOINT RHoodieString2
						{
							OFFSET 0.000000 -9.643799 2.679100
							CHANNELS 3 Xrotation Yrotation Zrotation
							End Site
							{
								OFFSET 0.000000 10.009018 0.000000
							}
						}
					}
				}
			}
			JOINT LBackpack_Strap
			{
				OFFSET 15.223200 -7.719803 -6.610900
				CHANNELS 3 Xrotation Yrotation Zrotation
				End Site
				{
					OFFSET 0.000000 16.040596 0.000000
				}
			}
			JOINT RBackpack_Strap
			{
				OFFSET -15.223000 -7.719803 -6.610900
				CHANNELS 3 Xrotation Yrotation Zrotation
				End Site
				{
					OFFSET 0.000000 16.040596 0.000000
				}
			}
		}
	}
	JOINT BoyFacialAnim_Joint
	{
		OFFSET 1.000000 -82.208099 -1.550900
		CHANNELS 3 Xrotation Yrotation Zrotation
		End Site
		{
			OFFSET 0.000000 30.012791 0.000000
		}
	}
}
MOTION
Frames: 5
Frame Time: 0.033333
0.026259 72.378159 2.444914 10.260010 19.628674 -4.113388 0.000000 -0.000001 0.000000 -36.025689 -9.649133 10.002439 51.956836 -0.105588 10.035611 -24.839979 4.307908 -19.809567 0.000000 -0.000001 0.000000 0.000000 -0.000001 0.000000 -0.000002 0.000000 -0.000000 -24.369178 -8.217996 -15.549380 51.040822 -9.084825 -2.271069 -31.850166 -6.310548 16.671937 -0.000000 -0.000000 0.000000 -0.000000 -0.000000 0.000000 -0.000002 -0.000001 -0.000001 -5.701287 -3.916510 0.794858 -9.669943 -6.358589 5.913374 -9.693550 -5.983702 6.247732 -4.837397 0.494198 -1.106297 5.258944 0.733632 0.679900 -0.000000 0.000000 0.000001 -0.000000 0.000000 0.000001 -0.000000 0.000000 0.000001 -0.622707 5.925306 2.860982 -10.694598 -44.260985 2.597694 -0.000031 -117.480715 -0.000031 10.536476 -46.037818 21.240299 -1.540041 3.690190 6.142349 3.939047 7.948695 0.746818 -0.000000 0.000000 -0.000001 -0.000000 0.000002 -0.000001 -0.000004 -0.000010 0.000005 -0.000001 -0.000003 0.000001 -0.000005 -0.001930 0.015981 0.000007 0.001924 -0.015982 0.000002 -0.000003 -0.000000 0.000002 0.000002 -0.000002 -0.000007 -0.000006 -0.000045 0.000000 -0.000001 -0.000001 -0.018092 4.054250 0.511064 -0.018083 -4.054251 -0.511060 -0.000001 0.000001 -0.000000 0.000001 -0.000000 0.000001 0.338321 -10.571974 8.217816 -8.662724 -5.991089 46.407772 0.000026 117.529852 -0.000037 -16.131934 44.041330 -2.630124 -1.849257 -3.581790 -6.586128 4.637198 -8.634128 -0.225423 -0.000000 0.000000 -0.000001 -0.000003 -0.000001 -0.000001 -0.000000 -0.000001 -0.000000 0.000001 0.000000 0.000002 0.000001 0.000001 -0.000002 0.000001 -0.000003 0.000031 0.000004 0.000001 0.000002 -0.000001 -0.000003 -0.000007 0.000002 0.000000 -0.000001 0.000003 0.000000 0.000000 0.000000 0.000001 -0.000010 -0.000003 -0.000003 0.000012 0.000003 -0.000000 0.000000 0.000002 -0.000005 0.000001 -0.000000 -0.000000 0.000001 -0.000000 -0.000000 0.000001 -0.000000 -0.000000 0.000001 -0.000000 -0.000000 0.000001 -0.000000 -0.000000 0.000000 -0.000000 -0.000000 0.000000 -0.000000 -0.000000 0.000001 -0.000000 -0.000000 0.000000 -0.000000 -0.000000 0.000000 -0.000000 -0.000000 0.000000 -0.000000 -0.000000 0.000000 0.000000 -0.000001 0.000000 
-0.686707 71.910233 2.180268 11.005471 18.205818 -3.279135 -0.000001 0.000000 0.000000 -36.811059 -8.241630 11.079546 52.026770 0.604822 10.146540 -24.027388 4.716287 -21.241362 0.000000 0.000000 -0.000000 0.000000 0.000000 -0.000000 -0.000003 0.000001 -0.000000 -27.643927 -7.214722 -15.935120 54.160982 -8.929155 -2.817625 -32.803472 -6.430762 16.214096 -0.000000 0.000000 -0.000000 -0.000000 0.000000 -0.000000 -0.000002 0.000001 0.000001 -5.285142 -3.775384 0.721802 -9.008003 -6.098007 5.134683 -9.018379 -5.802439 5.435652 -3.206962 1.242716 -1.577084 4.694959 3.980918 -2.786186 -0.000001 -0.000001 0.000001 -0.000001 -0.000001 0.000001 -0.000001 -0.000001 0.000001 -0.641761 6.290963 2.131580 -13.620280 -37.025318 0.856361 0.000000 -120.365241 -0.000005 9.950477 -48.647681 23.814394 -1.540032 3.690196 6.142351 3.939045 7.948696 0.746817 0.000000 0.000000 -0.000000 0.000007 0.000006 -0.000003 -0.000008 -0.000010 0.000000 0.000001 0.000003 -0.000001 0.000015 -0.001920 0.015975 0.000011 0.001923 -0.015980 0.000001 0.000000 -0.000003 0.000012 0.000008 -0.000010 -0.000007 -0.000009 -0.000042 -0.000001 -0.000001 -0.000000 -0.018075 4.054259 0.511064 -0.018085 -4.054256 -0.511057 0.000001 -0.000004 0.000001 -0.000000 -0.000001 0.000000 0.657315 -12.332370 10.162913 -9.125862 -4.049496 48.282563 0.000111 114.736345 -0.000107 -12.518640 49.513305 -9.691450 -1.849259 -3.581790 -6.586127 4.637200 -8.634128 -0.225422 0.000002 0.000001 -0.000001 -0.000002 0.000002 0.000013 0.000003 -0.000001 -0.000000 -0.000001 -0.000001 0.000002 0.000001 -0.000000 -0.000000 -0.000001 -0.000004 0.000033 -0.000002 0.000001 -0.000000 0.000003 0.000003 -0.000003 -0.000004 0.000001 -0.000005 -0.000003 -0.000001 0.000002 -0.000001 -0.000001 -0.000012 -0.000005 -0.000003 0.000010 -0.000000 -0.000001 -0.000004 -0.000001 -0.000000 0.000002 -0.000001 0.000000 0.000000 -0.000001 0.000000 0.000000 -0.000001 0.000000 0.000000 -0.000001 0.000000 0.000000 -0.000001 0.000000 0.000000 -0.000001 -0.000000 0.000000 -0.000001 0.000000 0.000000 -0.000001 0.000000 0.000000 -0.000001 -0.000000 0.000000 -0.000000 0.000000 0.000000 -0.000000 0.000000 0.000000 -0.000001 0.000000 0.000000 
-1.587784 71.705643 1.127843 4.973885 16.121845 -2.372897 0.000000 -0.000001 0.000000 -33.817021 -7.250802 14.162892 55.446062 -1.470120 10.164612 -20.049807 4.632674 -23.009425 0.000001 -0.000002 -0.000000 0.000001 -0.000002 -0.000000 0.000002 0.000001 0.000000 -23.877665 -5.656804 -13.278520 56.052364 -8.906146 -3.523656 -32.835735 -6.936273 15.129948 -0.000000 -0.000000 -0.000000 -0.000000 -0.000000 -0.000000 0.000001 -0.000000 -0.000000 -2.458612 -2.802954 0.515817 -3.877495 -4.481640 5.088075 -3.898520 -4.300741 5.222381 -1.656787 1.260247 -1.498321 2.519229 4.474604 -2.855122 -0.000000 0.000000 0.000000 -0.000000 0.000000 0.000000 -0.000000 0.000000 0.000000 -0.510881 5.587928 2.092898 -18.330283 -46.139635 -5.801889 -0.000066 -103.512815 -0.000062 22.308204 -41.789601 24.803374 -1.540019 3.690188 6.142346 3.939047 7.948695 0.746816 0.000001 -0.000000 0.000000 -0.000002 -0.000002 -0.000001 -0.000003 -0.000010 0.000002 0.000001 -0.000002 -0.000002 0.000008 -0.001928 0.015976 0.000009 0.001925 -0.015983 0.000003 -0.000001 0.000002 0.000006 -0.000000 -0.000004 -0.000005 -0.000007 -0.000049 0.000001 0.000002 -0.000003 -0.018077 4.054257 0.511064 -0.018084 -4.054253 -0.511062 -0.000002 0.000001 -0.000000 0.000001 -0.000002 -0.000000 0.461385 -10.674191 8.644405 -18.900780 8.323919 48.553482 0.000663 99.117424 -0.000638 -2.637958 47.509860 -14.550974 -1.849258 -3.581792 -6.586129 4.637199 -8.634128 -0.225423 0.000000 -0.000003 -0.000001 -0.000003 -0.000001 -0.000000 0.000001 -0.000001 0.000003 -0.000000 -0.000001 -0.000000 0.000002 0.000001 0.000009 -0.000002 -0.000003 0.000031 0.000001 0.000000 -0.000000 0.000000 -0.000003 -0.000007 -0.000002 0.000001 -0.000001 -0.000002 -0.000001 -0.000001 -0.000006 0.000000 -0.000011 -0.000002 -0.000004 0.000010 -0.000003 0.000001 0.000000 0.000000 -0.000001 0.000000 -0.000000 -0.000000 0.000000 -0.000000 -0.000000 0.000000 -0.000000 -0.000000 0.000000 -0.000000 -0.000000 0.000000 -0.000000 -0.000000 -0.000000 -0.000000 -0.000000 0.000000 -0.000000 -0.000000 0.000000 -0.000000 -0.000000 -0.000000 -0.000000 -0.000000 0.000000 -0.000000 0.000000 -0.000000 -0.000000 0.000000 -0.000000 0.000000 -0.000001 0.000000 
-2.536866 71.909637 -0.259965 -3.763754 15.423091 -0.283766 -0.000000 -0.000001 0.000000 -29.834232 -6.938189 15.688393 58.971846 -5.332646 10.205255 -11.294000 3.625940 -23.708338 0.000000 0.000003 -0.000001 0.000000 0.000003 -0.000001 0.000001 -0.000000 -0.000000 -16.760152 -4.670658 -11.264995 56.748770 -8.751144 -4.278740 -32.313314 -8.106374 13.578334 0.000000 -0.000000 -0.000000 0.000000 -0.000000 -0.000000 0.000000 0.000000 -0.000000 1.456311 -1.818306 -0.111288 3.204509 -2.984908 3.998319 3.169674 -3.017533 4.001224 -0.486362 0.951737 -1.196282 0.023282 3.409620 -1.563406 -0.000000 0.000001 0.000000 -0.000000 0.000001 0.000000 -0.000000 0.000001 0.000000 -0.281843 3.883730 3.474398 -28.095886 -59.367594 -15.480907 0.000018 -78.058933 0.000010 35.034752 -38.370596 31.296217 -1.540031 3.690185 6.142352 3.939049 7.948696 0.746816 -0.000000 -0.000001 0.000001 0.000000 0.000000 -0.000001 -0.000003 -0.000010 0.000000 -0.000002 -0.000000 -0.000002 0.000001 -0.001929 0.015978 0.000007 0.001925 -0.015982 0.000004 -0.000000 -0.000002 0.000004 0.000001 -0.000006 -0.000008 -0.000009 -0.000042 -0.000002 -0.000002 -0.000001 -0.018092 4.054256 0.511067 -0.018087 -4.054253 -0.511060 -0.000002 0.000000 -0.000000 0.000001 0.000005 -0.000001 0.175772 -7.402980 5.318180 -30.894930 21.341647 47.772218 -0.000313 80.878005 0.000285 2.841951 40.933003 -10.412943 -1.849256 -3.581790 -6.586127 4.637198 -8.634128 -0.225423 -0.000000 0.000000 -0.000001 -0.000004 0.000001 0.000006 0.000002 -0.000002 0.000001 -0.000001 -0.000001 0.000002 -0.000007 0.000010 0.000022 0.000002 -0.000006 0.000032 0.000003 0.000001 -0.000000 -0.000003 0.000002 0.000003 -0.000000 -0.000001 -0.000003 0.000000 0.000001 0.000001 -0.000005 0.000008 0.000000 -0.000000 -0.000004 0.000010 0.000000 0.000000 -0.000001 0.000002 -0.000001 0.000001 0.000000 -0.000001 -0.000000 0.000000 -0.000001 -0.000000 0.000000 -0.000001 -0.000000 0.000000 -0.000001 -0.000000 0.000000 -0.000001 -0.000000 -0.000000 -0.000000 -0.000000 0.000000 -0.000001 -0.000000 0.000000 -0.000001 -0.000000 -0.000000 -0.000000 -0.000000 -0.000000 0.000001 0.000000 -0.000000 0.000001 0.000000 -0.000000 -0.000001 0.000000 
-3.521850 72.563736 -1.542548 -12.166972 15.294242 3.353695 0.000000 -0.000001 -0.000000 -25.753515 -6.203877 14.972000 59.161125 -7.739680 10.101850 0.966071 0.609078 -23.117561 -0.000001 -0.000000 0.000000 -0.000001 -0.000000 0.000000 0.000002 0.000000 0.000001 -9.227125 -4.368066 -10.925443 55.985981 -8.390052 -5.544549 -31.270303 -9.467174 12.288956 -0.000000 0.000000 0.000000 -0.000000 0.000000 0.000000 -0.000003 0.000000 -0.000000 5.262823 -1.472063 -1.103614 10.039748 -2.772330 1.651062 9.975681 -3.045144 1.602863 0.421033 0.947979 -1.097758 -2.015271 3.226738 0.336158 0.000000 0.000000 -0.000000 0.000000 0.000000 -0.000000 0.000000 0.000000 -0.000000 -0.109473 2.296309 5.117483 16.997633 -66.154412 28.861186 -0.000010 -51.607369 -0.000002 35.423444 -27.850238 57.860377 -1.540049 3.690186 6.142354 3.939045 7.948692 0.746818 0.000004 -0.000002 -0.000001 0.000001 0.000002 0.000000 -0.000005 -0.000010 0.000000 -0.000003 -0.000002 -0.000002 0.000005 -0.001932 0.015975 0.000007 0.001927 -0.015983 0.000004 -0.000001 -0.000000 0.000012 -0.000004 -0.000010 -0.000010 -0.000007 -0.000045 0.000004 -0.000000 -0.000002 -0.018076 4.054259 0.511064 -0.018087 -4.054251 -0.511060 -0.000001 0.000001 -0.000000 -0.000001 0.000000 0.000001 0.107782 -1.943764 -0.504534 -37.171454 33.865577 45.606365 0.000018 62.912203 -0.000024 7.947069 33.288856 -7.528374 -1.849253 -3.581787 -6.586124 4.637201 -8.634131 -0.225426 0.000003 0.000004 -0.000003 0.000000 0.000004 0.000015 -0.000002 0.000002 0.000002 -0.000001 -0.000001 0.000003 0.000001 0.000001 0.000016 0.000003 -0.000003 0.000028 0.000003 -0.000003 -0.000001 -0.000001 0.000001 0.000004 -0.000004 0.000001 -0.000006 -0.000002 0.000001 0.000002 -0.000003 -0.000001 -0.000001 -0.000000 -0.000004 0.000012 0.000001 -0.000002 -0.000005 -0.000002 -0.000001 0.000000 -0.000001 -0.000001 0.000000 -0.000001 -0.000001 0.000000 -0.000001 -0.000001 0.000000 -0.000001 -0.000001 0.000000 -0.000001 -0.000001 -0.000000 -0.000001 -0.000001 0.000000 -0.000001 -0.000001 0.000000 -0.000001 -0.000001 -0.000000 -0.000001 -0.000001 0.000000 0.000000 -0.000001 0.000000 0.000000 -0.000001 0.000000 0.000000 -0.000001 -0.000000 
